<?xml version="1.0" standalone="no"?>
<!DOCTYPE svg PUBLIC "-//W3C//DTD SVG 20010904//EN"
 "http://www.w3.org/TR/2001/REC-SVG-20010904/DTD/svg10.dtd">
<svg version="1.0" xmlns="http://www.w3.org/2000/svg"
 width="256.000000pt" height="256.000000pt" viewBox="0 0 256.000000 256.000000"
 preserveAspectRatio="xMidYMid meet">

<g transform="translate(0.000000,256.000000) scale(0.100000,-0.100000)"
fill="#000000" stroke="none">
<path d="M197 2546 c-90 -33 -163 -108 -187 -196 -6 -22 -10 -424 -10 -1071 0
-890 2 -1042 15 -1086 19 -65 85 -139 150 -169 l50 -24 1071 0 1070 0 52 26
c58 29 106 79 133 138 18 39 19 92 19 1111 0 1054 -1 1071 -21 1115 -29 65
-94 127 -157 150 -51 20 -78 20 -1100 20 -854 -1 -1054 -3 -1085 -14z m956
-747 c120 -160 221 -289 226 -287 4 2 126 131 271 288 l264 285 74 3 c42 2 72
-1 70 -6 -1 -5 -139 -156 -305 -336 -167 -179 -303 -330 -303 -336 0 -6 155
-217 345 -470 190 -253 345 -462 345 -465 0 -3 -115 -5 -255 -5 l-255 0 -236
317 -237 318 -66 -73 c-36 -40 -167 -182 -291 -316 l-225 -245 -78 0 -79 -1
169 181 c92 100 243 263 335 362 l167 181 -19 25 c-10 15 -158 213 -329 441
-171 228 -311 418 -311 423 0 4 114 7 253 7 l252 0 218 -291z"/>
<path d="M650 1974 c0 -4 233 -318 517 -698 284 -380 517 -692 518 -694 1 -1
55 -1 119 0 l117 3 -522 698 -521 697 -114 0 c-63 0 -114 -3 -114 -6z"/>
</g>
</svg>
